# xmcd CD database file
#
# Track frame offsets:
#	150
#	19605
#	34987
#	54907
#	72185
#	85945
#	106595
#	124350
#	143057
#	162962
#	182262
#	205070
#	223270
#
# Disc length: 3308 seconds
#
# Revision: 0
# Processed by: cddbd v1.5PL3 Copyright (c) Steve Scherf et al.
# Submitted via: CDex 1.51
#
DISCID=ad0cea0d
DTITLE=THE ROCKFORDS - The Rockfords
DYEAR=2000
DGENRE=Hard Rock
TTITLE0=Adelaide
TTITLE1=Flashes
TTITLE2=Silver Lining
TTITLE3=This Life
TTITLE4=Distress
TTITLE5=Coat Of Arms
TTITLE6=Spiral
TTITLE7=Something True
TTITLE8=Riverwide
TTITLE9=Sureshot
TTITLE10=Windows
TTITLE11=Island
TTITLE12=Heart In Your Hands
EXTD=YEAR: 2000
EXTT0=
EXTT1=
EXTT2=
EXTT3=
EXTT4=
EXTT5=
EXTT6=
EXTT7=
EXTT8=
EXTT9=
EXTT10=
EXTT11=
EXTT12=
PLAYORDER=
